<svg width="2977.2" height="4208.4" xmlns="http://www.w3.org/2000/svg" version="1.2" baseProfile="tiny"><path fill="#fff" fill-rule="evenodd" d="M0 0h2977.2v4208.4H0V0"/><path class="StaffLines" fill="none" stroke="#000" stroke-width="2" stroke-linejoin="bevel" d="M194.232 316.732H2835.47M194.232 341.732H2835.47M194.232 366.732H2835.47M194.232 391.732H2835.47M194.232 416.732H2835.47M194.232 613.079H2835.47M194.232 638.079H2835.47M194.232 663.079H2835.47M194.232 688.079H2835.47M194.232 713.079H2835.47"/><path class="MeasureNumber" d="M194.107 257.654v2.406h-4.078v6.672h-3.078v-6.672h-11.234v-2.406l12.547-17.797h1.765v17.797h4.078m-7.203 0v-13.719l-9.594 13.719h9.594m22.594 1.219c0-1.427-.315-2.693-.945-3.797-.631-1.104-1.391-1.958-2.282-2.562a13.033 13.033 0 00-2.992-1.493c-1.104-.39-2.065-.645-2.883-.765a14.94 14.94 0 00-2.132-.18c-.323 0-.485-.109-.485-.328 0-.073.011-.135.031-.188l4.36-9.296h8.359c.427 0 .768-.068 1.024-.204.255-.135.528-.416.82-.843l.359.281-1.515 3.344c-.105.218-.412.328-.922.328h-7.844l-1.672 3.437c3.886.698 6.776 1.834 8.672 3.407 1.896 1.573 2.844 3.88 2.844 6.921 0 1.594-.248 3.011-.742 4.25-.495 1.24-1.123 2.237-1.883 2.993a9.747 9.747 0 01-2.641 1.859c-1 .484-1.958.815-2.875.992a14.64 14.64 0 01-2.781.266c-1.49 0-2.675-.221-3.555-.664-.88-.443-1.32-1.055-1.32-1.836 0-1 .573-1.5 1.719-1.5.75 0 1.716.414 2.898 1.242 1.182.828 2.122 1.242 2.82 1.242 1.573 0 2.894-.666 3.961-2 1.068-1.333 1.602-2.969 1.602-4.906"/><path class="TieSegment" stroke="#000" stroke-width="1.75" stroke-linecap="round" stroke-linejoin="round" fill-rule="evenodd" d="M2065.26 556.829c20.85-17.842 83.38-17.842 104.23 0-20.85-13.842-83.38-13.842-104.23 0M2065.26 397.982c20.85 13.843 83.38 13.843 104.23 0-20.85 17.843-83.38 17.843-104.23 0"/><path class="BarLine" stroke="#000" stroke-width="4" stroke-linejoin="bevel" d="M196.232 612.079v102M1249.18 612.079v102M2115.66 612.079v102M2487.57 612.079v102M2810.97 612.079v102"/><path class="BarLine" stroke="#000" stroke-width="12.5" stroke-linejoin="bevel" d="M2829.22 612.079v102"/><path class="BarLine" stroke="#000" stroke-width="4" stroke-linejoin="bevel" d="M196.232 315.732v297.347M1249.18 315.732v297.347M2115.66 315.732v297.347M2487.57 315.732v297.347M2810.97 315.732v297.347"/><path class="BarLine" stroke="#000" stroke-width="12.5" stroke-linejoin="bevel" d="M2829.22 315.732v297.347"/><path class="LedgerLine" stroke="#000" stroke-width="4" stroke-linecap="square" stroke-linejoin="bevel" d="M402.201 738.079h47.914M960.52 588.079h47.91M1100.1 588.079h47.91M1827 588.079h47.91M2036.37 588.079h47.91M2144.66 588.079h64.51"/><path class="Stem" stroke="#000" stroke-width="3.25" stroke-linecap="round" stroke-linejoin="bevel" d="M440.99 733.384V613.079M510.78 683.384v-85.93M580.57 645.884v-64.055M650.36 683.384v-95.305M720.15 645.884v-57.805M789.94 683.384v-95.305M830.065 680.275v64.054M899.855 630.275v98.429M969.645 592.775v120.304M1039.44 630.275v64.054M1109.22 592.775v101.554M1179.01 630.275v64.054M1307.47 708.384V581.829M1377.26 658.384v-95.305M1447.05 620.884v-76.555M1516.84 708.384V581.829M1586.63 658.384v-95.305M1656.42 620.884v-76.555M1696.54 667.775v70.304M1766.33 617.775v104.679M1836.12 580.275v126.554M1905.91 667.775v70.304M1975.7 617.775v104.679M2045.49 580.275v126.554M411.326 308.928v151.554M481.116 396.428v64.054M550.906 321.428v139.054M620.696 396.428v70.304M690.486 333.928v132.804M760.276 396.428v70.304M830.065 333.928v126.554M899.855 396.428v64.054M969.645 358.928v101.554M1039.44 333.928v126.554M1109.22 396.428v64.054M1179.01 358.928v101.554M1277.8 346.428v120.304M1347.59 396.428v70.304M1417.38 371.428v95.304M1487.17 346.428v120.304M1556.96 396.428v70.304M1626.75 371.428v95.304M1726.21 337.037v-70.305M1796 399.537V279.232M1865.79 374.537v-82.805M1935.58 337.037v-70.305M2005.37 399.537V279.232M2075.16 374.537v-82.805"/><path class="Note" d="M431.67 724.314c3.125 0 5.766.812 7.922 2.437 2.01 1.761 3.015 3.974 3.015 6.641 0 4.489-2.307 8.687-6.921 12.594-4.688 3.906-9.704 5.859-15.047 5.859-3.125 0-5.761-.813-7.907-2.438-2.02-1.76-3.031-3.974-3.031-6.64 0-4.49 2.344-8.688 7.031-12.594 4.563-3.906 9.542-5.859 14.938-5.859M501.46 674.314c3.125 0 5.765.812 7.922 2.437 2.01 1.761 3.015 3.974 3.015 6.641 0 4.489-2.307 8.687-6.922 12.593-4.687 3.907-9.703 5.86-15.046 5.86-3.125 0-5.761-.813-7.907-2.438-2.021-1.76-3.031-3.974-3.031-6.64 0-4.49 2.344-8.688 7.031-12.594 4.563-3.906 9.542-5.859 14.938-5.859M571.25 636.814c3.125 0 5.765.812 7.922 2.437 2.01 1.761 3.015 3.974 3.015 6.641 0 4.489-2.307 8.687-6.922 12.593-4.687 3.907-9.703 5.86-15.047 5.86-3.125 0-5.76-.813-7.906-2.438-2.021-1.76-3.031-3.974-3.031-6.64 0-4.49 2.344-8.688 7.031-12.594 4.563-3.906 9.542-5.859 14.938-5.859M641.04 674.314c3.125 0 5.765.812 7.921 2.437 2.011 1.761 3.016 3.974 3.016 6.641 0 4.489-2.307 8.687-6.922 12.593-4.687 3.907-9.703 5.86-15.047 5.86-3.125 0-5.76-.813-7.906-2.438-2.021-1.76-3.031-3.974-3.031-6.64 0-4.49 2.344-8.688 7.031-12.594 4.563-3.906 9.542-5.859 14.938-5.859M710.829 636.814c3.125 0 5.766.812 7.922 2.437 2.011 1.761 3.016 3.974 3.016 6.641 0 4.489-2.307 8.687-6.922 12.593-4.687 3.907-9.703 5.86-15.047 5.86-3.125 0-5.76-.813-7.906-2.438-2.021-1.76-3.031-3.974-3.031-6.64 0-4.49 2.343-8.688 7.031-12.594 4.562-3.906 9.542-5.859 14.937-5.859M780.619 674.314c3.125 0 5.766.812 7.922 2.437 2.011 1.761 3.016 3.974 3.016 6.641 0 4.489-2.308 8.687-6.922 12.593-4.688 3.907-9.703 5.86-15.047 5.86-3.125 0-5.76-.813-7.906-2.438-2.021-1.76-3.031-3.974-3.031-6.64 0-4.49 2.343-8.688 7.031-12.594 4.562-3.906 9.541-5.859 14.937-5.859M850.409 661.814c3.125 0 5.766.812 7.922 2.437 2.01 1.761 3.016 3.974 3.016 6.641 0 4.489-2.308 8.687-6.922 12.593-4.688 3.907-9.703 5.86-15.047 5.86-3.125 0-5.761-.813-7.906-2.438-2.021-1.76-3.032-3.974-3.032-6.64 0-4.49 2.344-8.688 7.032-12.594 4.562-3.906 9.541-5.859 14.937-5.859M920.199 611.814c3.125 0 5.766.812 7.922 2.437 2.01 1.76 3.016 3.974 3.016 6.641 0 4.489-2.308 8.687-6.922 12.593-4.688 3.907-9.703 5.86-15.047 5.86-3.125 0-5.761-.813-7.906-2.438-2.021-1.76-3.032-3.974-3.032-6.64 0-4.49 2.344-8.688 7.032-12.594 4.562-3.906 9.541-5.859 14.937-5.859M989.989 574.314c3.125 0 5.766.812 7.922 2.437 2.01 1.76 3.019 3.974 3.019 6.641 0 4.489-2.311 8.687-6.925 12.593-4.688 3.907-9.704 5.86-15.047 5.86-3.125 0-5.761-.813-7.907-2.438-2.02-1.76-3.031-3.974-3.031-6.64 0-4.49 2.344-8.688 7.031-12.594 4.563-3.906 9.542-5.859 14.938-5.859M1059.78 611.814c3.12 0 5.76.812 7.92 2.437 2.01 1.76 3.02 3.974 3.02 6.641 0 4.489-2.31 8.687-6.93 12.593-4.68 3.907-9.7 5.86-15.04 5.86-3.13 0-5.76-.813-7.91-2.438-2.02-1.76-3.03-3.974-3.03-6.64 0-4.49 2.34-8.688 7.03-12.594 4.56-3.906 9.54-5.859 14.94-5.859M1129.57 574.314c3.12 0 5.76.812 7.92 2.437 2.01 1.76 3.02 3.974 3.02 6.641 0 4.489-2.31 8.687-6.93 12.593-4.68 3.907-9.7 5.86-15.04 5.86-3.13 0-5.76-.813-7.91-2.438-2.02-1.76-3.03-3.974-3.03-6.64 0-4.49 2.34-8.688 7.03-12.594 4.56-3.906 9.54-5.859 14.94-5.859M1199.36 611.814c3.12 0 5.76.812 7.92 2.437 2.01 1.76 3.02 3.974 3.02 6.641 0 4.489-2.31 8.687-6.93 12.593-4.68 3.907-9.7 5.86-15.04 5.86-3.13 0-5.76-.813-7.91-2.438-2.02-1.76-3.03-3.974-3.03-6.64 0-4.49 2.34-8.688 7.03-12.594 4.56-3.906 9.54-5.859 14.94-5.859M1298.15 699.314c3.12 0 5.76.812 7.92 2.437 2.01 1.761 3.02 3.974 3.02 6.641 0 4.489-2.31 8.687-6.93 12.594-4.68 3.906-9.7 5.859-15.04 5.859-3.13 0-5.76-.813-7.91-2.438-2.02-1.76-3.03-3.974-3.03-6.64 0-4.49 2.34-8.688 7.03-12.594 4.56-3.906 9.54-5.859 14.94-5.859M1367.94 649.314c3.12 0 5.76.812 7.92 2.437 2.01 1.761 3.02 3.974 3.02 6.641 0 4.489-2.31 8.687-6.93 12.593-4.68 3.907-9.7 5.86-15.04 5.86-3.13 0-5.76-.813-7.91-2.438-2.02-1.76-3.03-3.974-3.03-6.64 0-4.49 2.34-8.688 7.03-12.594 4.56-3.906 9.54-5.859 14.94-5.859M1437.73 611.814c3.12 0 5.76.812 7.92 2.437 2.01 1.76 3.02 3.974 3.02 6.641 0 4.489-2.31 8.687-6.93 12.593-4.68 3.907-9.7 5.86-15.04 5.86-3.13 0-5.76-.813-7.91-2.438-2.02-1.76-3.03-3.974-3.03-6.64 0-4.49 2.34-8.688 7.03-12.594 4.56-3.906 9.54-5.859 14.94-5.859M1507.52 699.314c3.12 0 5.76.812 7.92 2.437 2.01 1.761 3.02 3.974 3.02 6.641 0 4.489-2.31 8.687-6.93 12.594-4.68 3.906-9.7 5.859-15.04 5.859-3.13 0-5.76-.813-7.91-2.438-2.02-1.76-3.03-3.974-3.03-6.64 0-4.49 2.34-8.688 7.03-12.594 4.56-3.906 9.54-5.859 14.94-5.859M1577.31 649.314c3.12 0 5.76.812 7.92 2.437 2.01 1.761 3.02 3.974 3.02 6.641 0 4.489-2.31 8.687-6.93 12.593-4.68 3.907-9.7 5.86-15.04 5.86-3.13 0-5.76-.813-7.91-2.438-2.02-1.76-3.03-3.974-3.03-6.64 0-4.49 2.34-8.688 7.03-12.594 4.56-3.906 9.54-5.859 14.94-5.859M1647.1 611.814c3.12 0 5.76.812 7.92 2.437 2.01 1.76 3.02 3.974 3.02 6.641 0 4.489-2.31 8.687-6.93 12.593-4.68 3.907-9.7 5.86-15.04 5.86-3.13 0-5.76-.813-7.91-2.438-2.02-1.76-3.03-3.974-3.03-6.64 0-4.49 2.34-8.688 7.03-12.594 4.56-3.906 9.54-5.859 14.94-5.859M1716.89 649.314c3.12 0 5.76.812 7.92 2.437 2.01 1.761 3.02 3.974 3.02 6.641 0 4.489-2.31 8.687-6.93 12.593-4.68 3.907-9.7 5.86-15.04 5.86-3.13 0-5.76-.813-7.91-2.438-2.02-1.76-3.03-3.974-3.03-6.64 0-4.49 2.34-8.688 7.03-12.594 4.56-3.906 9.54-5.859 14.94-5.859M1786.68 599.314c3.12 0 5.76.812 7.92 2.437 2.01 1.76 3.01 3.974 3.01 6.641 0 4.489-2.3 8.687-6.92 12.593-4.68 3.907-9.7 5.86-15.04 5.86-3.13 0-5.76-.813-7.91-2.438-2.02-1.76-3.03-3.974-3.03-6.64 0-4.49 2.34-8.688 7.03-12.594 4.56-3.906 9.54-5.859 14.94-5.859M1856.47 561.814c3.12 0 5.76.812 7.92 2.437 2.01 1.76 3.01 3.974 3.01 6.641 0 4.489-2.3 8.687-6.92 12.593-4.68 3.907-9.7 5.86-15.04 5.86-3.13 0-5.76-.813-7.91-2.438-2.02-1.76-3.03-3.974-3.03-6.64 0-4.49 2.34-8.688 7.03-12.594 4.56-3.906 9.54-5.859 14.94-5.859M1926.26 649.314c3.12 0 5.76.812 7.92 2.437 2.01 1.761 3.01 3.974 3.01 6.641 0 4.489-2.3 8.687-6.92 12.593-4.68 3.907-9.7 5.86-15.04 5.86-3.13 0-5.76-.813-7.91-2.438-2.02-1.76-3.03-3.974-3.03-6.64 0-4.49 2.34-8.688 7.03-12.594 4.56-3.906 9.54-5.859 14.94-5.859M1996.05 599.314c3.12 0 5.76.812 7.92 2.437 2.01 1.76 3.01 3.974 3.01 6.641 0 4.489-2.3 8.687-6.92 12.593-4.68 3.907-9.7 5.86-15.04 5.86-3.13 0-5.76-.813-7.91-2.438-2.02-1.76-3.03-3.974-3.03-6.64 0-4.49 2.34-8.688 7.03-12.594 4.56-3.906 9.54-5.859 14.94-5.859M2065.84 561.814c3.12 0 5.76.812 7.92 2.437 2.01 1.76 3.01 3.974 3.01 6.641 0 4.489-2.3 8.687-6.92 12.593-4.68 3.907-9.7 5.86-15.04 5.86-3.13 0-5.76-.813-7.91-2.438-2.02-1.76-3.03-3.974-3.03-6.64 0-4.49 2.34-8.688 7.03-12.594 4.56-3.906 9.54-5.859 14.94-5.859M2173.64 564.345c-2.34 0-4.03.812-5.08 2.437-1.16 1.563-1.75 3.683-1.75 6.36 0 3.062.82 5.698 2.44 7.906 1.63 2.146 3.42 3.646 5.38 4.5 1.75.844 3.6 1.266 5.56 1.266 2.28 0 4-.813 5.17-2.438 1.11-1.635 1.66-3.755 1.66-6.359 0-3.063-.82-5.698-2.44-7.907-1.63-2.083-3.38-3.583-5.27-4.5-1.89-.843-3.78-1.265-5.67-1.265m3.33-2.531c7.03 0 12.89 1.364 17.58 4.093 4.75 2.74 7.12 5.964 7.12 9.672 0 3.969-2.44 7.224-7.32 9.766-4.89 2.666-10.68 4-17.38 4-6.91 0-12.77-1.365-17.58-4.094-4.82-2.74-7.23-5.963-7.23-9.672 0-3.969 2.47-7.224 7.42-9.765 4.89-2.667 10.68-4 17.39-4M431.67 290.467c3.125 0 5.766.812 7.922 2.437 2.01 1.761 3.015 3.974 3.015 6.641 0 4.489-2.307 8.687-6.921 12.594-4.688 3.906-9.704 5.859-15.047 5.859-3.125 0-5.761-.812-7.907-2.437-2.02-1.761-3.031-3.974-3.031-6.641 0-4.49 2.344-8.688 7.031-12.594 4.563-3.906 9.542-5.859 14.938-5.859M501.46 377.967c3.125 0 5.765.812 7.922 2.437 2.01 1.761 3.015 3.974 3.015 6.641 0 4.49-2.307 8.687-6.922 12.594-4.687 3.906-9.703 5.859-15.046 5.859-3.125 0-5.761-.812-7.907-2.437-2.021-1.761-3.031-3.974-3.031-6.641 0-4.49 2.344-8.688 7.031-12.594 4.563-3.906 9.542-5.859 14.938-5.859M571.25 302.967c3.125 0 5.765.812 7.922 2.437 2.01 1.761 3.015 3.974 3.015 6.641 0 4.489-2.307 8.687-6.922 12.594-4.687 3.906-9.703 5.859-15.047 5.859-3.125 0-5.76-.812-7.906-2.437-2.021-1.761-3.031-3.974-3.031-6.641 0-4.49 2.344-8.688 7.031-12.594 4.563-3.906 9.542-5.859 14.938-5.859M641.04 377.967c3.125 0 5.765.812 7.921 2.437 2.011 1.761 3.016 3.974 3.016 6.641 0 4.49-2.307 8.687-6.922 12.594-4.687 3.906-9.703 5.859-15.047 5.859-3.125 0-5.76-.812-7.906-2.437-2.021-1.761-3.031-3.974-3.031-6.641 0-4.49 2.344-8.688 7.031-12.594 4.563-3.906 9.542-5.859 14.938-5.859M710.829 315.467c3.125 0 5.766.812 7.922 2.437 2.011 1.761 3.016 3.974 3.016 6.641 0 4.489-2.307 8.687-6.922 12.594-4.687 3.906-9.703 5.859-15.047 5.859-3.125 0-5.76-.812-7.906-2.437-2.021-1.761-3.031-3.974-3.031-6.641 0-4.49 2.343-8.688 7.031-12.594 4.562-3.906 9.542-5.859 14.937-5.859M780.619 377.967c3.125 0 5.766.812 7.922 2.437 2.011 1.761 3.016 3.974 3.016 6.641 0 4.49-2.308 8.687-6.922 12.594-4.688 3.906-9.703 5.859-15.047 5.859-3.125 0-5.76-.812-7.906-2.437-2.021-1.761-3.031-3.974-3.031-6.641 0-4.49 2.343-8.688 7.031-12.594 4.562-3.906 9.541-5.859 14.937-5.859M850.409 315.467c3.125 0 5.766.812 7.922 2.437 2.01 1.761 3.016 3.974 3.016 6.641 0 4.489-2.308 8.687-6.922 12.594-4.688 3.906-9.703 5.859-15.047 5.859-3.125 0-5.761-.812-7.906-2.437-2.021-1.761-3.032-3.974-3.032-6.641 0-4.49 2.344-8.688 7.032-12.594 4.562-3.906 9.541-5.859 14.937-5.859M920.199 377.967c3.125 0 5.766.812 7.922 2.437 2.01 1.761 3.016 3.974 3.016 6.641 0 4.49-2.308 8.687-6.922 12.594-4.688 3.906-9.703 5.859-15.047 5.859-3.125 0-5.761-.812-7.906-2.437-2.021-1.761-3.032-3.974-3.032-6.641 0-4.49 2.344-8.688 7.032-12.594 4.562-3.906 9.541-5.859 14.937-5.859M989.989 340.467c3.125 0 5.766.812 7.922 2.437 2.01 1.761 3.019 3.974 3.019 6.641 0 4.49-2.311 8.687-6.925 12.594-4.688 3.906-9.704 5.859-15.047 5.859-3.125 0-5.761-.812-7.907-2.437-2.02-1.761-3.031-3.974-3.031-6.641 0-4.49 2.344-8.688 7.031-12.594 4.563-3.906 9.542-5.859 14.938-5.859M1059.78 315.467c3.12 0 5.76.812 7.92 2.437 2.01 1.761 3.02 3.974 3.02 6.641 0 4.489-2.31 8.687-6.93 12.594-4.68 3.906-9.7 5.859-15.04 5.859-3.13 0-5.76-.812-7.91-2.437-2.02-1.761-3.03-3.974-3.03-6.641 0-4.49 2.34-8.688 7.03-12.594 4.56-3.906 9.54-5.859 14.94-5.859M1129.57 377.967c3.12 0 5.76.812 7.92 2.437 2.01 1.761 3.02 3.974 3.02 6.641 0 4.49-2.31 8.687-6.93 12.594-4.68 3.906-9.7 5.859-15.04 5.859-3.13 0-5.76-.812-7.91-2.437-2.02-1.761-3.03-3.974-3.03-6.641 0-4.49 2.34-8.688 7.03-12.594 4.56-3.906 9.54-5.859 14.94-5.859M1199.36 340.467c3.12 0 5.76.812 7.92 2.437 2.01 1.761 3.02 3.974 3.02 6.641 0 4.49-2.31 8.687-6.93 12.594-4.68 3.906-9.7 5.859-15.04 5.859-3.13 0-5.76-.812-7.91-2.437-2.02-1.761-3.03-3.974-3.03-6.641 0-4.49 2.34-8.688 7.03-12.594 4.56-3.906 9.54-5.859 14.94-5.859M1298.15 327.967c3.12 0 5.76.812 7.92 2.437 2.01 1.761 3.02 3.974 3.02 6.641 0 4.489-2.31 8.687-6.93 12.594-4.68 3.906-9.7 5.859-15.04 5.859-3.13 0-5.76-.812-7.91-2.437-2.02-1.761-3.03-3.974-3.03-6.641 0-4.49 2.34-8.688 7.03-12.594 4.56-3.906 9.54-5.859 14.94-5.859M1367.94 377.967c3.12 0 5.76.812 7.92 2.437 2.01 1.761 3.02 3.974 3.02 6.641 0 4.49-2.31 8.687-6.93 12.594-4.68 3.906-9.7 5.859-15.04 5.859-3.13 0-5.76-.812-7.91-2.437-2.02-1.761-3.03-3.974-3.03-6.641 0-4.49 2.34-8.688 7.03-12.594 4.56-3.906 9.54-5.859 14.94-5.859M1437.73 352.967c3.12 0 5.76.812 7.92 2.437 2.01 1.761 3.02 3.974 3.02 6.641 0 4.49-2.31 8.687-6.93 12.594-4.68 3.906-9.7 5.859-15.04 5.859-3.13 0-5.76-.812-7.91-2.437-2.02-1.761-3.03-3.974-3.03-6.641 0-4.49 2.34-8.688 7.03-12.594 4.56-3.906 9.54-5.859 14.94-5.859M1507.52 327.967c3.12 0 5.76.812 7.92 2.437 2.01 1.761 3.02 3.974 3.02 6.641 0 4.489-2.31 8.687-6.93 12.594-4.68 3.906-9.7 5.859-15.04 5.859-3.13 0-5.76-.812-7.91-2.437-2.02-1.761-3.03-3.974-3.03-6.641 0-4.49 2.34-8.688 7.03-12.594 4.56-3.906 9.54-5.859 14.94-5.859M1577.31 377.967c3.12 0 5.76.812 7.92 2.437 2.01 1.761 3.02 3.974 3.02 6.641 0 4.49-2.31 8.687-6.93 12.594-4.68 3.906-9.7 5.859-15.04 5.859-3.13 0-5.76-.812-7.91-2.437-2.02-1.761-3.03-3.974-3.03-6.641 0-4.49 2.34-8.688 7.03-12.594 4.56-3.906 9.54-5.859 14.94-5.859M1647.1 352.967c3.12 0 5.76.812 7.92 2.437 2.01 1.761 3.02 3.974 3.02 6.641 0 4.49-2.31 8.687-6.93 12.594-4.68 3.906-9.7 5.859-15.04 5.859-3.13 0-5.76-.812-7.91-2.437-2.02-1.761-3.03-3.974-3.03-6.641 0-4.49 2.34-8.688 7.03-12.594 4.56-3.906 9.54-5.859 14.94-5.859M1716.89 327.967c3.12 0 5.76.812 7.92 2.437 2.01 1.761 3.02 3.974 3.02 6.641 0 4.489-2.31 8.687-6.93 12.594-4.68 3.906-9.7 5.859-15.04 5.859-3.13 0-5.76-.812-7.91-2.437-2.02-1.761-3.03-3.974-3.03-6.641 0-4.49 2.34-8.688 7.03-12.594 4.56-3.906 9.54-5.859 14.94-5.859M1786.68 390.467c3.12 0 5.76.812 7.92 2.437 2.01 1.761 3.01 3.974 3.01 6.641 0 4.49-2.3 8.687-6.92 12.594-4.68 3.906-9.7 5.859-15.04 5.859-3.13 0-5.76-.812-7.91-2.437-2.02-1.761-3.03-3.974-3.03-6.641 0-4.49 2.34-8.688 7.03-12.594 4.56-3.906 9.54-5.859 14.94-5.859M1856.47 365.467c3.12 0 5.76.812 7.92 2.437 2.01 1.761 3.01 3.974 3.01 6.641 0 4.49-2.3 8.687-6.92 12.594-4.68 3.906-9.7 5.859-15.04 5.859-3.13 0-5.76-.812-7.91-2.437-2.02-1.761-3.03-3.974-3.03-6.641 0-4.49 2.34-8.688 7.03-12.594 4.56-3.906 9.54-5.859 14.94-5.859M1926.26 327.967c3.12 0 5.76.812 7.92 2.437 2.01 1.761 3.01 3.974 3.01 6.641 0 4.489-2.3 8.687-6.92 12.594-4.68 3.906-9.7 5.859-15.04 5.859-3.13 0-5.76-.812-7.91-2.437-2.02-1.761-3.03-3.974-3.03-6.641 0-4.49 2.34-8.688 7.03-12.594 4.56-3.906 9.54-5.859 14.94-5.859M1996.05 390.467c3.12 0 5.76.812 7.92 2.437 2.01 1.761 3.01 3.974 3.01 6.641 0 4.49-2.3 8.687-6.92 12.594-4.68 3.906-9.7 5.859-15.04 5.859-3.13 0-5.76-.812-7.91-2.437-2.02-1.761-3.03-3.974-3.03-6.641 0-4.49 2.34-8.688 7.03-12.594 4.56-3.906 9.54-5.859 14.94-5.859M2065.84 365.467c3.12 0 5.76.812 7.92 2.437 2.01 1.761 3.01 3.974 3.01 6.641 0 4.49-2.3 8.687-6.92 12.594-4.68 3.906-9.7 5.859-15.04 5.859-3.13 0-5.76-.812-7.91-2.437-2.02-1.761-3.03-3.974-3.03-6.641 0-4.49 2.34-8.688 7.03-12.594 4.56-3.906 9.54-5.859 14.94-5.859M2173.64 367.998c-2.34 0-4.03.813-5.08 2.438-1.16 1.562-1.75 3.682-1.75 6.359 0 3.062.82 5.698 2.44 7.906 1.63 2.146 3.42 3.646 5.38 4.5 1.75.844 3.6 1.266 5.56 1.266 2.28 0 4-.813 5.17-2.438 1.11-1.635 1.66-3.755 1.66-6.359 0-3.063-.82-5.698-2.44-7.906-1.63-2.084-3.38-3.584-5.27-4.5-1.89-.844-3.78-1.266-5.67-1.266m3.33-2.531c7.03 0 12.89 1.364 17.58 4.094 4.75 2.739 7.12 5.963 7.12 9.671 0 3.969-2.44 7.224-7.32 9.766-4.89 2.667-10.68 4-17.38 4-6.91 0-12.77-1.365-17.58-4.094-4.82-2.739-7.23-5.963-7.23-9.672 0-3.968 2.47-7.224 7.42-9.765 4.89-2.667 10.68-4 17.39-4"/><path class="Clef" d="M276.639 629.189c-.974-.98-1.461-2.185-1.461-3.618 0-1.432.487-2.635 1.461-3.609.974-.974 2.177-1.461 3.609-1.461s2.638.487 3.617 1.461c.979.974 1.469 2.177 1.469 3.609 0 1.433-.49 2.638-1.469 3.618-.979.979-2.185 1.468-3.617 1.468s-2.635-.489-3.609-1.468m0 25.007c-.974-.974-1.461-2.177-1.461-3.609s.487-2.638 1.461-3.617c.974-.979 2.177-1.469 3.609-1.469s2.638.49 3.617 1.469c.979.979 1.469 2.185 1.469 3.617s-.49 2.635-1.469 3.609c-.979.974-2.185 1.461-3.617 1.461s-2.635-.487-3.609-1.461m-33.883-42.382c8.656 0 15.75 2.177 21.281 6.531 5.344 4.562 8.016 10.75 8.016 18.562 0 5.271-1.042 10.089-3.125 14.453-1.959 4.563-4.532 8.599-7.719 12.11-3.261 3.583-7.198 6.969-11.813 10.156a128.744 128.744 0 01-13.875 8.406c-9.698 4.875-15.036 7.313-16.015 7.313-.844 0-1.266-.422-1.266-1.266 0-.323.13-.614.391-.875 3.323-1.958 7.39-4.463 12.203-7.515 3.125-2.021 6.771-4.823 10.937-8.407 4.042-3.385 7.167-6.573 9.375-9.562 2.282-2.938 4.365-6.583 6.25-10.938 1.625-4.364 2.438-8.666 2.438-12.906 0-6.312-1.563-11.812-4.688-16.5-3.125-4.687-7.255-7.031-12.39-7.031-3.646 0-6.771 1.172-9.375 3.515-2.802 2.407-4.823 5.433-6.063 9.079 1.24-.521 2.38-.782 3.422-.782 2.729 0 5.073.98 7.031 2.938 1.948 2.083 2.922 4.458 2.922 7.125 0 2.802-.942 5.312-2.828 7.531-2.021 2.011-4.396 3.016-7.125 3.016-2.927 0-5.562-1.005-7.906-3.016-2.219-2.219-3.328-4.729-3.328-7.531 0-6.708 2.281-12.438 6.843-17.188 4.49-4.812 9.959-7.218 16.407-7.218M256.224 366.139h.594a2.93 2.93 0 01.672-.094c7.292 0 13.281 2.573 17.969 7.719 4.687 5.073 7.031 10.994 7.031 17.765 0 8.407-3.479 15.245-10.437 20.516-1.823 1.437-4.204 2.609-7.141 3.516.333 4.229.5 7.645.5 10.25 0 .52-.068 2.411-.203 5.671-.261 6.053-2.344 11.292-6.25 15.719-3.771 4.365-8.458 6.547-14.063 6.547-5.27 0-9.76-1.854-13.468-5.562-3.719-3.782-5.579-8.339-5.579-13.672 0-2.802 1.079-5.183 3.235-7.141 2.208-1.948 4.776-2.922 7.703-2.922 2.604 0 4.786 1.011 6.547 3.031 1.823 1.886 2.734 4.23 2.734 7.032 0 2.531-.911 4.708-2.734 6.531-1.823 1.823-4.005 2.734-6.547 2.734a8.075 8.075 0 01-3.016-.578c2.865 4.229 6.672 6.344 11.422 6.344 4.49 0 8.167-1.823 11.031-5.469 3-3.771 4.631-8.166 4.891-13.187.125-3.125.188-4.912.188-5.36 0-3.646-.131-6.64-.391-8.984-3.25.521-6.146.781-8.688.781-9.052 0-16.765-3.583-23.14-10.75-6.25-7.229-9.375-15.823-9.375-25.781 0-2.083.193-4.198.578-6.344.396-1.76.885-3.682 1.469-5.765.323-1.178 1.203-3.068 2.64-5.672a43.319 43.319 0 001.758-2.93c.651-1.172 1.107-1.951 1.367-2.336.646-1.302 1.912-3.062 3.797-5.281a38.885 38.885 0 001.617-1.945c.558-.714 1.032-1.3 1.422-1.758.391-.459.683-.818.875-1.078.193-.261 1.659-1.985 4.399-5.172a34.167 34.167 0 001.898-2.102 51.62 51.62 0 011.516-1.758c.39-.427.685-.734.883-.922-2.344-7.75-3.813-13.937-4.407-18.562-.448-3.708-.672-8.787-.672-15.234 0-5.667 1.303-10.974 3.907-15.922 2.531-5.136 6.078-9.334 10.64-12.594.261-.198.584-.297.969-.297.458 0 .787.099.984.297 3.511 4.229 6.537 9.729 9.079 16.5 2.604 6.771 3.906 12.927 3.906 18.469 0 6.25-1.495 12.109-4.485 17.578-3.385 5.791-7.75 11.781-13.093 17.969 1.364 4.291 3.187 11.026 5.468 20.203m8.297 45.422c3.386-1.24 6.026-3.355 7.922-6.344 2.084-2.865 3.125-6.089 3.125-9.672 0-4.625-1.562-8.729-4.687-12.313-3.198-3.708-7.271-5.791-12.219-6.25 2.802 13.74 4.755 25.266 5.859 34.579m-37.781-22.563c0 6.448 2.604 12.115 7.813 17 5.333 4.75 11.323 7.125 17.968 7.125 2.73 0 5.396-.198 8-.594-1.041-9.896-3.093-21.744-6.156-35.547-3.708.396-6.667 1.698-8.875 3.907-2.156 2.281-3.234 4.854-3.234 7.718 0 4.948 2.64 8.954 7.922 12.016.448.458.671.948.671 1.469 0 .521-.223 1.005-.671 1.453-.396.458-.886.687-1.469.687-.063 0-.354-.062-.875-.187-3.719-2.021-6.583-4.625-8.594-7.813-1.896-3.395-2.844-6.817-2.844-10.265 0-4.49 1.401-8.557 4.203-12.203 2.928-3.646 6.735-5.99 11.422-7.032-1.823-7.291-3.317-12.989-4.484-17.093a5844.243 5844.243 0 00-3.758 4.25c-1.463 1.656-2.325 2.651-2.586 2.984-2.344 3.052-4.135 5.427-5.375 7.125-2.219 3.063-3.849 5.698-4.89 7.906-1.105 2.479-2.079 5.183-2.922 8.11-.844 2.802-1.266 5.797-1.266 8.984m32.609-99.312c-4.885 2.406-8.723 5.854-11.515 10.343-2.865 4.625-4.297 9.604-4.297 14.938 0 4.687 1.172 11.005 3.516 18.953 4.687-5.667 8.203-10.906 10.546-15.719 2.469-5.083 3.704-10.39 3.704-15.922 0-4.166-.651-8.364-1.954-12.593"/><path class="KeySig" d="M331.74 669.235c0 1.24-.617 1.86-1.851 1.86-1.235 0-1.852-.62-1.852-1.86v-14.453l-8.297 3.125v15.813c0 1.239-.62 1.859-1.859 1.859-1.24 0-1.86-.62-1.86-1.859v-14.547l-3.125 1.172c-.062.062-.322.094-.781.094-.521 0-.976-.196-1.367-.586-.391-.391-.586-.847-.586-1.368v-6.046c0-.98.422-1.599 1.266-1.86l4.593-1.562v-16.016l-3.125 1.078c-.062.063-.322.094-.781.094-.521 0-.976-.195-1.367-.586-.391-.391-.586-.846-.586-1.367v-6.063c0-.906.422-1.489 1.266-1.75l4.593-1.765v-15.719c0-1.24.62-1.859 1.86-1.859 1.239 0 1.859.619 1.859 1.859v14.453l8.297-3.125v-15.812c0-1.24.617-1.86 1.852-1.86 1.234 0 1.851.62 1.851 1.86v14.546l3.235-1.171c.062-.063.286-.094.671-.094.459 0 .948.193 1.469.578.396.396.594.854.594 1.375v6.047c0 .917-.458 1.536-1.375 1.859l-4.594 1.563v16.015l3.235-1.078c.062-.062.286-.094.671-.094.459 0 .948.198 1.469.594.396.386.594.839.594 1.36v6.062c0 .844-.458 1.427-1.375 1.75l-4.594 1.766v15.718m-3.703-40.625l-8.297 2.922v16.016l8.297-2.922V628.61M331.74 347.889c0 1.239-.617 1.859-1.851 1.859-1.235 0-1.852-.62-1.852-1.859v-14.453l-8.297 3.125v15.812c0 1.24-.62 1.859-1.859 1.859-1.24 0-1.86-.619-1.86-1.859v-14.547l-3.125 1.172c-.062.063-.322.094-.781.094-.521 0-.976-.196-1.367-.586-.391-.391-.586-.847-.586-1.367v-6.047c0-.979.422-1.599 1.266-1.86l4.593-1.562v-16.016l-3.125 1.078c-.062.063-.322.094-.781.094-.521 0-.976-.195-1.367-.586-.391-.39-.586-.846-.586-1.367v-6.062c0-.907.422-1.49 1.266-1.75l4.593-1.766v-15.719c0-1.239.62-1.859 1.86-1.859 1.239 0 1.859.62 1.859 1.859v14.453l8.297-3.125v-15.812c0-1.24.617-1.86 1.852-1.86 1.234 0 1.851.62 1.851 1.86v14.547l3.235-1.172c.062-.063.286-.094.671-.094.459 0 .948.193 1.469.578.396.396.594.854.594 1.375v6.047c0 .917-.458 1.536-1.375 1.859l-4.594 1.563v16.016l3.235-1.079c.062-.062.286-.093.671-.093.459 0 .948.198 1.469.593.396.386.594.839.594 1.36v6.062c0 .844-.458 1.427-1.375 1.75l-4.594 1.766v15.719m-3.703-40.625l-8.297 2.922v16.015l8.297-2.922v-16.015"/><path class="Rest" d="M2667.05 653.704h-35.54c-.66 0-.99-.323-.99-.969v-13.671c0-.657.33-.985.99-.985h35.54c.65 0 .97.328.97.985v13.671c0 .646-.32.969-.97.969M2667.05 357.357h-35.54c-.66 0-.99-.323-.99-.968v-13.672c0-.656.33-.985.99-.985h35.54c.65 0 .97.329.97.985v13.672c0 .645-.32.968-.97.968"/><path class="Beam" fill-rule="evenodd" d="M439.365 607.402l142.83-31.978v12.81l-142.83 31.978v-12.81M648.735 581.829h142.83v12.5h-142.83v-12.5M828.44 737.925l142.83-31.978v12.809l-142.83 31.978v-12.809M1037.81 688.079h142.83v12.5h-142.83v-12.5M1305.84 576.231l142.83-38.373v12.943l-142.83 38.373v-12.943M1515.21 576.231l142.83-38.373v12.943l-142.83 38.373v-12.943M1694.92 731.675l142.83-31.978v12.809l-142.83 31.978v-12.809M1904.29 731.675l142.83-31.978v12.809l-142.83 31.978v-12.809M409.701 454.232h142.83v12.5h-142.83v-12.5M619.071 460.482h142.83v12.5h-142.83v-12.5M828.44 454.232h142.83v12.5H828.44v-12.5M1037.81 454.232h142.83v12.5h-142.83v-12.5M1276.18 460.482h142.83v12.5h-142.83v-12.5M1485.55 460.482h142.83v12.5h-142.83v-12.5M1724.58 259.801l142.83 25.582v12.699L1724.58 272.5v-12.699M1933.95 259.801l142.83 25.582v12.699L1933.95 272.5v-12.699"/><path class="HairpinSegment" stroke="#000" stroke-width="3.25" stroke-linecap="square" stroke-linejoin="bevel" d="M1276.18 522.108l812-15M1276.18 492.108l812 15"/><path class="NoteDot" d="M2212.09 579.587c-1.11-1.109-1.67-2.445-1.67-4.008 0-1.562.56-2.898 1.67-4.008 1.11-1.109 2.44-1.664 4.01-1.664 1.56 0 2.89.555 4 1.664 1.1 1.11 1.65 2.446 1.65 4.008 0 1.563-.55 2.899-1.65 4.008-1.11 1.109-2.44 1.664-4 1.664-1.57 0-2.9-.555-4.01-1.664M2212.09 383.24c-1.11-1.109-1.67-2.445-1.67-4.008 0-1.562.56-2.898 1.67-4.007 1.11-1.11 2.44-1.664 4.01-1.664 1.56 0 2.89.554 4 1.664 1.1 1.109 1.65 2.445 1.65 4.007 0 1.563-.55 2.899-1.65 4.008-1.11 1.11-2.44 1.664-4 1.664-1.57 0-2.9-.554-4.01-1.664"/><path class="Page" d="M1418.25 3969.33c1.15 0 2.24.1 3.28.28 1.04.19 2.12.52 3.23.98 1.11.46 2 1.19 2.67 2.18.67.99 1.01 2.19 1.01 3.61 0 3.58-2.36 5.82-7.08 6.7-.08.03-.15.05-.2.05l8.25 10.05c.56.66 1.09 1.13 1.58 1.39.5.26 1.13.41 1.9.47v.76h-6.44l-9.54-12.2-2.24.08v7.79c0 1.43.22 2.36.64 2.78.43.42 1.41.68 2.96.79v.76h-11.08v-.76c1.5-.11 2.44-.39 2.83-.86.38-.46.57-1.52.57-3.18v-17.31c0-1.41-.19-2.33-.57-2.74-.39-.41-1.33-.7-2.83-.87v-.75h11.06m-3.58 12.75c3.23-.05 5.6-.47 7.1-1.27 1.51-.8 2.26-2.3 2.26-4.51 0-1.85-.59-3.22-1.78-4.12-1.19-.89-3.03-1.33-5.53-1.33-.8 0-1.34.1-1.63.3-.28.19-.42.57-.42 1.14v9.79m28.49-4.67c2.58 0 4.7.85 6.36 2.56 1.66 1.7 2.5 3.86 2.5 6.47 0 2.77-.87 5.09-2.6 6.96s-3.84 2.81-6.33 2.81c-2.5 0-4.59-.9-6.29-2.71-1.69-1.8-2.53-4.04-2.53-6.73 0-2.75.82-5 2.47-6.74 1.65-1.75 3.79-2.62 6.42-2.62m-5.22 7.41c0 2.83.52 5.24 1.55 7.22 1.04 1.98 2.4 2.96 4.07 2.96 1.49 0 2.66-.63 3.51-1.9.85-1.27 1.27-3.03 1.27-5.27 0-2.72-.53-4.93-1.59-6.65-1.06-1.72-2.43-2.58-4.11-2.58-1.41 0-2.54.57-3.41 1.7-.86 1.14-1.29 2.64-1.29 4.52m17.44-4.74c-.6 0-1.16.04-1.69.13v-.61c1.87-.53 3.95-1.26 6.23-2.19l.17.11v14.2c0 1.44.17 2.35.5 2.74.34.38 1.15.63 2.46.75v.59h-9.52v-.59c1.39-.09 2.26-.33 2.62-.73.36-.4.54-1.32.54-2.76v-9.28c0-.87-.1-1.48-.3-1.83-.2-.35-.54-.53-1.01-.53m2.65-11.59c.6 0 1.09.2 1.49.6.4.4.61.88.61 1.43 0 .59-.21 1.08-.61 1.47-.4.38-.89.58-1.49.58-.57 0-1.05-.2-1.44-.6-.38-.41-.57-.88-.57-1.44 0-.56.2-1.04.6-1.44.4-.4.87-.6 1.41-.6m37.63 8.09c0 .69-.08 1.35-.25 1.98-.16.63-.47 1.3-.93 2.02-.47.71-1.09 1.32-1.86 1.83-.78.51-1.84.94-3.17 1.28-1.34.35-2.9.52-4.67.52-.8 0-1.72-.04-2.76-.13v7.33c0 1.48.23 2.44.7 2.88.47.45 1.49.69 3.06.75v.76h-11.2v-.76c1.52-.13 2.46-.41 2.82-.86.36-.44.54-1.5.54-3.18v-17.31c0-1.45-.19-2.37-.56-2.76-.37-.4-1.3-.68-2.8-.85v-.75h10.58c1.2 0 2.37.11 3.49.34 1.12.22 2.23.59 3.34 1.1 1.11.51 2 1.26 2.67 2.25.66.99 1 2.18 1 3.56m-13.64-4.37v10.36c.93.07 1.69.11 2.28.11 4.64 0 6.97-1.96 6.97-5.86 0-2.04-.64-3.55-1.93-4.52-1.28-.97-3.27-1.45-5.96-1.45-.54 0-.9.09-1.08.28-.19.19-.28.55-.28 1.08m27.07 9c-.39 0-.88-.24-1.47-.71-.59-.46-.98-.7-1.17-.7-.53 0-1.13.39-1.79 1.17-.67.78-1 1.5-1 2.14v9.07c0 1.15.22 1.93.68 2.33.45.4 1.35.64 2.71.7v.59h-9.63v-.59c1.27-.25 2.06-.52 2.37-.81.31-.3.46-.95.46-1.97v-10.08c0-.89-.1-1.51-.3-1.88-.19-.36-.55-.54-1.06-.54-.43 0-.89.05-1.39.15v-.62c2.14-.66 4.12-1.34 5.95-2.05l.21.08v3.56c.99-1.37 1.83-2.32 2.52-2.85.69-.53 1.45-.79 2.27-.79.7 0 1.24.18 1.63.54.38.36.58.86.58 1.51 0 .54-.14.97-.43 1.28-.28.31-.66.47-1.14.47m4.21-1.13c-.6 0-1.16.04-1.69.13v-.61c1.87-.53 3.95-1.26 6.23-2.19l.18.11v14.2c0 1.44.16 2.35.5 2.74.33.38 1.15.63 2.45.75v.59h-9.52v-.59c1.39-.09 2.26-.33 2.62-.73.36-.4.54-1.32.54-2.76v-9.28c0-.87-.1-1.48-.3-1.83-.2-.35-.53-.53-1.01-.53m2.65-11.59c.6 0 1.09.2 1.5.6.4.4.6.88.6 1.43 0 .59-.2 1.08-.6 1.47-.41.38-.9.58-1.5.58-.57 0-1.05-.2-1.43-.6-.39-.41-.58-.88-.58-1.44 0-.56.2-1.04.6-1.44.4-.4.87-.6 1.41-.6m10.1 16.23c.05 1.65.28 3.07.68 4.26s.92 2.08 1.55 2.67c.64.59 1.28 1.01 1.94 1.26.66.25 1.34.38 2.06.38 1.28 0 2.4-.32 3.35-.95.94-.63 1.9-1.69 2.85-3.18l.65.28c-.84 2.19-1.99 3.86-3.45 5.03-1.46 1.16-3.14 1.74-5.04 1.74-2.29 0-4.15-.81-5.58-2.44-1.42-1.62-2.14-3.82-2.14-6.58 0-2.95.82-5.31 2.46-7.1 1.64-1.79 3.69-2.68 6.14-2.68 2.03 0 3.6.61 4.72 1.82 1.12 1.21 1.83 3.05 2.12 5.49h-12.31m.08-1.2h8.15c-.27-1.73-.68-2.93-1.24-3.59-.56-.67-1.45-1-2.68-1-2.4 0-3.81 1.53-4.23 4.59m23.93-5.72v1.2h-4.03v11.44c0 1.25.16 2.16.48 2.74.32.57.85.86 1.6.86.82 0 1.62-.47 2.41-1.39l.51.43c-1.28 2.09-2.88 3.13-4.8 3.13-2.4 0-3.6-1.71-3.6-5.11V3979h-2.11c-.11-.07-.16-.16-.16-.26 0-.13.04-.22.12-.3.07-.07.23-.18.46-.32s.5-.33.83-.58c.32-.25.76-.71 1.32-1.38.57-.67 1.18-1.46 1.85-2.39.42-.61.7-.99.81-1.12.19 0 .28.17.28.51v4.64h4.03m10.82-.39c2.58 0 4.7.85 6.36 2.56 1.66 1.7 2.49 3.86 2.49 6.47 0 2.77-.86 5.09-2.59 6.96s-3.84 2.81-6.34 2.81c-2.49 0-4.58-.9-6.28-2.71-1.69-1.8-2.54-4.04-2.54-6.73 0-2.75.83-5 2.48-6.74 1.65-1.75 3.79-2.62 6.42-2.62m-5.22 7.41c0 2.83.51 5.24 1.55 7.22 1.04 1.98 2.39 2.96 4.07 2.96 1.49 0 2.66-.63 3.51-1.9.85-1.27 1.27-3.03 1.27-5.27 0-2.72-.53-4.93-1.59-6.65-1.06-1.72-2.43-2.58-4.11-2.58-1.41 0-2.54.57-3.41 1.7-.86 1.14-1.29 2.64-1.29 4.52M2820.69 3991.6c.61 0 1.53.37 2.74 1.12 1.21.75 2.27 1.13 3.18 1.13 1.47 0 2.71-.57 3.72-1.71 1.01-1.14 1.51-2.55 1.51-4.21 0-1.05-.14-1.96-.44-2.75-.3-.8-.71-1.41-1.24-1.85-.52-.43-1.17-.79-1.95-1.07-.78-.27-1.5-.45-2.18-.54-.68-.08-1.4-.12-2.17-.12v-.52c.91-.32 1.68-.64 2.34-.94.65-.31 1.33-.72 2.05-1.24.72-.51 1.27-1.15 1.66-1.9.38-.75.57-1.6.57-2.56 0-1.25-.4-2.27-1.21-3.08-.82-.8-1.87-1.2-3.18-1.2-1.25 0-2.35.34-3.29 1.02-.95.69-1.84 1.76-2.67 3.23l-.6-.17c.7-1.89 1.64-3.44 2.82-4.65 1.18-1.21 2.87-1.82 5.06-1.82 1.84 0 3.33.51 4.48 1.52 1.15 1.01 1.72 2.32 1.72 3.95 0 1.09-.28 2.05-.84 2.88-.55.83-1.53 1.71-2.93 2.65 1.61.69 2.86 1.57 3.77 2.64.91 1.07 1.36 2.61 1.36 4.61 0 2.83-1.09 5.1-3.26 6.8-2.17 1.7-4.85 2.54-8.02 2.54-1.39 0-2.49-.21-3.3-.63-.81-.42-1.22-.99-1.22-1.69 0-.44.14-.79.42-1.05.29-.26.65-.39 1.1-.39"/><path class="Bracket" fill-rule="evenodd" d="M183.775 457.743c0-31.931-20.114-62.969-20.114-93.561 0-15.407 5.486-30.368 22.4-43.765.228-.168.343-.447.343-.614 0-.503-1.257-.949-2.172-.949-.457 0-1.257.056-1.828.446-21.943 17.194-29.257 37.067-29.257 57.164 0 32.377 21.485 63.638 21.485 94.676 0 15.407-5.485 29.922-22.4 43.319v.893c16.915 13.398 22.4 27.912 22.4 43.319 0 31.038-21.485 62.299-21.485 94.677 0 20.097 7.314 39.97 29.257 57.163.571.391 1.371.447 1.828.447.915 0 2.172-.447 2.172-.949 0-.168-.115-.447-.343-.614-16.914-13.398-22.4-28.358-22.4-43.766 0-30.591 20.114-61.629 20.114-93.56 0-20.32-7.314-39.746-28.8-57.163 21.486-17.417 28.8-36.844 28.8-57.163"/></svg>
